<?xml version="1.0" encoding="UTF-8"?>
<svg id="Layer_1" data-name="Layer 1" xmlns="http://www.w3.org/2000/svg" viewBox="0 0 1417.32 336.02">
  <defs>
    <style>
      .cls-1 {
        fill: #5c4b3d;
      }
    </style>
  </defs>
  <g>
    <path class="cls-1" d="M415.14,130.9v86.53h-4.68v-86.53h-31.88v-4.29h68.45v4.29h-31.88Z"/>
    <path class="cls-1" d="M465.37,217.43v-90.83h53.48v4.29h-48.8v38.26h47.11v4.29h-47.11v39.69h48.8v4.29h-53.48Z"/>
    <path class="cls-1" d="M548.13,217.43h-4.68v-90.83h32.01c15.35,0,23.42,9.63,23.42,24.85s-7.81,24.33-22.51,24.72h-3.77l26.03,41.25h-5.47l-25.77-41.12h-19.26v41.12ZM575.46,172.15c12.36,0,18.35-8.2,18.35-17.83v-5.73c0-9.5-5.99-17.7-18.35-17.7h-27.33v41.25h27.33Z"/>
    <path class="cls-1" d="M626.21,217.43h-4.68v-90.83h32.01c15.35,0,23.42,9.63,23.42,24.85s-7.81,24.33-22.51,24.72h-3.77l26.02,41.25h-5.46l-25.77-41.12h-19.26v41.12ZM653.54,172.15c12.36,0,18.35-8.2,18.35-17.83v-5.73c0-9.5-5.99-17.7-18.35-17.7h-27.33v41.25h27.33Z"/>
    <path class="cls-1" d="M753.09,217.43l-9.63-29.41h-36.7l-9.63,29.41h-4.94l29.8-90.83h6.38l29.67,90.83h-4.94ZM725.37,131.81h-.65l-16.79,52.05h34.35l-16.92-52.05Z"/>
    <path class="cls-1" d="M909.25,217.43l-9.63-29.41h-36.7l-9.63,29.41h-4.94l29.8-90.83h6.38l29.67,90.83h-4.94ZM881.53,131.81h-.65l-16.79,52.05h34.35l-16.92-52.05Z"/>
    <path class="cls-1" d="M930.59,213.4h22.38v-59.08h-22.38v-4.03h26.94v13.92h.39c2.99-7.55,8.59-13.92,21.21-13.92h13.66v4.29h-14.83c-11.32,0-20.43,7.29-20.43,20.95v37.87h28.63v4.03h-55.56v-4.03Z"/>
    <path class="cls-1" d="M1011.93,183.86c0-22.77,10.54-35.13,28.24-35.13,11.97,0,19.91,6.12,23.16,14.83l-3.9,1.56c-2.99-7.94-9.76-12.36-19.26-12.36-14.97,0-23.29,10.67-23.29,27.33v7.55c0,16.66,8.33,27.33,23.29,27.33,10.15,0,16.92-5.07,20.56-13.01l3.51,2.08c-3.51,8.2-11.71,14.97-24.07,14.97-17.83,0-28.24-12.36-28.24-35.13Z"/>
    <path class="cls-1" d="M1092.09,121.14h4.55v39.04h.39c2.47-5.86,8.59-11.45,20.3-11.45,14.57,0,22.77,8.85,22.77,25.11v43.59h-4.55v-42.81c0-15.09-6.9-21.86-19.26-21.86-10.15,0-19.65,5.47-19.65,16.66v48.02h-4.55v-96.29Z"/>
    <path class="cls-1" d="M1169.39,213.4h26.16v-59.08h-26.16v-4.03h30.71v63.11h24.46v4.03h-55.17v-4.03ZM1192.94,125.43v-1.17c0-2.21,1.3-3.9,4.82-3.9s4.81,1.69,4.81,3.9v1.17c0,2.21-1.3,3.9-4.81,3.9s-4.82-1.69-4.82-3.9Z"/>
    <path class="cls-1" d="M1268.81,217.43l-24.98-67.14h4.68l23.03,62.72h.39l23.03-62.72h4.55l-24.98,67.14h-5.73Z"/>
    <path class="cls-1" d="M1321.9,183.86c0-22.77,10.8-35.13,28.11-35.13s27.85,13.4,27.85,33.7v1.82h-51.01v3.38c0,16.66,8.59,27.33,23.81,27.33,10.67,0,18.35-5.07,22.25-15.09l3.64,1.95c-3.9,10.41-12.88,17.18-25.89,17.18-17.96,0-28.76-12.36-28.76-35.13ZM1326.85,180.09v.52h46.2v-.65c0-16.79-8.46-27.33-23.03-27.33s-23.16,10.67-23.16,27.46Z"/>
  </g>
  <path class="cls-1" d="M230.78,211.88c1.93-1.17,3.33-2.92,4.96-4.42,5.47-5.03,17.73-15.17,19.91-21.99,1.76-5.51-1.01-10.52-1.73-15.89-.5-3.71-.49-8.14.65-11.73.49-1.53,1.8-3.5,2.06-4.93.24-1.35-.52-3.38,1.62-3.11-.2,1.3.36,2.71.32,3.96-.05,1.58-1.42,3.49-1.82,5.17-1.28,5.35.79,10.98,1.97,16.16l2.35-5.8c2.01-5.2,7.89-7.96,10.4-12.56,1.57-2.88,2.32-6.39,3.08-9.57.46-.44.73,1.65.75,1.8.43,2.92.11,6.16-.99,8.9-1.84,4.59-5.94,6.62-8.52,10.57-4.26,6.53-4.94,15.02-7.98,22.12-1.18,2.76-2.73,4.83-4.53,7.19,3.64-.02,7.68-.95,10.47-3.42s3.67-6.18,5.76-8.98c3.13-4.2,6.56-4.8,10.98-6.86,1.92-.89,3.73-1.99,5.64-2.9l1.27,1.45c0,.3-4.38,2.87-5,3.21-2.41,1.33-5.29,2.28-7.32,4.16-2.97,2.74-3.76,6.9-6,10.14-6.09,8.8-15.64,6.67-23.7,11.52s-8.59,12.21-12.65,19.62c-1.15,2.1-2.64,4.01-3.87,6.06-.3.5-1.4,2.17-1.47,2.58-.09.61,1.01.78,1.5.93,6.99,2.19,14.44.68,20.12-3.84,4.66-3.71,7.06-8.79,13.27-10.62,4.91-1.45,10.31-.26,13.27-5.51,1.49-2.64,1.77-5.75,3-8.49.99-2.21,2.75-3.98,3.6-6.26.15-.11,1.42.57,1.36.98-1.72,5.07-2.2,11.17-4.7,15.94-3.37,6.45-11.67,5.99-17.23,9.61-5.2,3.38-8.4,9.33-13.93,12.44-5,2.82-11.71,3.83-17.4,3.54-6.5-.33-13.02-3.06-19.42-.49s-9.45,9.32-13.78,14.15c-4.98,5.55-12.66,11.07-13.58,19.01-.23,1.96-.07,3.93-.15,5.9-.43,10.85-1.18,21.71-1.72,32.57-.09,1.75.2,3.48-.3,5.2h-21.41v-38.87c-.54-9.86-2.03-21.9-12.05-26.58-4.1-1.92-8.88-2.11-13.21-3.39-5.68-1.68-10.34-4.59-16.43-5.45-8.19-1.16-16.23,1.18-24.44-.23-7.1-1.22-19.95-7.2-22.96-14.12-2.55-5.86.41-12.02-3.57-17.84-1.15-1.68-3.24-2.9-3.54-5.07,4.21.52,7.89,4.34,9.2,8.26,1.45,4.37-.2,8.1,2.53,12.36,5.16,8.05,21.28,12.83,30.25,10.41.2-.05.4.01.54-.24.08-.37-3.72-3.98-4.27-4.57-2.21-2.4-21.37-19.56-21.6-23.01,6.78.68,25.03,23.92,30.94,26.07,2.09.76,4.66.93,6.87,1.12l-5.93-10.29c-2.02-3.12-3.78-6.49-6.18-9.34-3.89-4.63-10.67-8.33-15.87-11.44-6.98-4.17-12.98-8.11-21.18-9.54-10.44-1.82-27.04-.3-29.51-13.86v-3.1c3.12,3.23,5.39,7.27,9.11,9.9,5.42,3.83,11.89,3.07,18.2,3.13-4.02-3.21-6.93-7.64-9.03-12.31s-3.27-10.67-6.34-14.61c-1.41-1.81-3.26-3.29-4.62-5.15s-2.34-4.29-3.57-6.36c-.03-.3,1.04-1.15,1.22-1.07l15.2,17.16,2.1-16.75c.8.93,1.74,2.4,1.77,3.66.13,5.23-1.29,9.83-2.24,14.8-1.37,7.18.78,10.65,6.4,14.72l11.37,6.86c1.35-3.6-.1-6.48-2.33-9.23-.83-1.02-1.85-1.89-2.71-2.87-.4-.46-2.09-2.35-2.24-2.72-.22-.51,1.56-.22,1.74-.19,4.06.73,7.42,4.79,8.45,8.62.56,2.09.62,4.28,1.44,6.32,1.03,2.59,3.44,5.05,6.21,5.66l7.07,2.31c2.97,3.93,8.16,4.92,11.77,8.09,4.75,4.16,6.62,10.54,10.2,15.56,5.19,7.28,13.65,12.15,22.34,13.96.59.12,3.68.84,3.84.17.12-.49-2.42-4.71-2.81-5.55-2.38-5.05-2.86-8.84-7.26-12.91s-10.57-5.01-13.01-10.57c-3.5-7.96-1.83-4.92,6.23.91,2.18,1.58,4.9,2.77,7.4,3.68l5.06-14.57c.65-3.57-3.45-9.82-5.03-13.14-1.58-3.33-2.88-6.8-4.45-10.13l-.08-.55c.07-.44,1.6-1.36,2.02-1.1,3.52,4.64,5.7,10.11,8.3,15.29,1.21,2.41,2.68,4.38,3.26,7.13,1.18,5.6-1.75,7.17-2.67,11.92-1.14,5.82,1.69,14.4,5.04,19.22.09.14-.03.29.34.2,1.57-5.69,3.35-11.45,6.36-16.53,2.71-.13,1.79,3.11,1.38,4.8-1.95,8.12-7.57,14.7-1.76,22.88,1.65,2.32,3.96,4.86,5.88,7,1.32,1.48,2.7,2.94,4.11,4.34,3.16-15.1,2.97-31-1.82-45.74-.66-2.04-13.53-34.54-22.8-40.04-5.23-3.1-12.3-5.34-18.39-4.33l-5.62-2.06c-6.74-4.78-12.94-10.58-19.96-14.96-4.51-2.81-8.45-3.64-12.97-5.8-4.17-1.99-7.65-6.77-7.27-11.51,2.55,2.99,4.87,6.39,8.31,8.44,3.9,2.33,8.68,2.52,13.02,3.5l-4.81-20.63,1.55-.47c1.2,3.72,3.43,6.98,4.54,10.74.98,3.32,1.17,6.85,2.28,10.13,2.82,8.38,10.22,13.05,18.62,14.66,3.21,1.04,13.15,4,13.7,3.86,1.18-.29.27-2.2-.08-2.82-1.7-3.06-3.97-5.46-5.21-8.91-3.24-9.06.89-22.01-4.22-29.91-3.03-4.68-10.97-4.47-10.71-11.09,5.03,2.09,10.38,5.45,13.53,9.97s3.63,9.64,3.07,14.85c2.68-2.34,5.67-5.65,6.32-9.27s-1.23-7.34-.13-11c.09-.3.06-.79.48-.68.74,4.7,2.27,8.82,1.84,13.71-.82,9.34-11.98,12.32-6.27,23.53,5.43,10.66,17.34,16.34,24.59,25.53,1.21,1.53,2.14,3.26,3.42,4.73v-15.28c1.03-5.29.68-5.66,1.08-5.97,1.89-6.98,4.93-13.7,6.44-20.79,2.13-10,.08-27.86-8.99-36.93h0c-2.21-4.27-4.24-8.65-6.52-12.88-1.33-2.46-2.89-4.81-4.2-7.29-1.42-2.69-3.75-6.81-1.55-9.62.12-.15.87-.95,1.01-.85l6.31,14.49,1.61-.37c.29-.21.12-1.43.15-1.86.58-8.09,2.59-21.07-.2-28.51-1.88-5.03-6.13-8.94-4.82-14.83.75-3.41,3.75-5.95,4.55-9.34l1.22.41c-.12,1.27-.34,2.63-.8,3.82-.62,1.61-1.91,2.68-2.37,4.46-1.37,5.3,2.15,9.63,4.14,14.17,1.64,3.74,2.44,7.82,4.4,11.43,3.98-3.81,9.01-7.25,10.58-12.84.99-3.52.03-6.65,2.53-9.73.86-1.06,2.16-1.97,3.01-3.04,2.31-2.94,2.39-6.89,1.75-10.41-.31-1.73-1.35-3.71-.57-5.4h.47c4.07,2.01,3.34,8.37,2.53,12.07-.92,4.2-2.4,5.46-4.27,8.92-2.4,4.44-1.94,9.56-4.45,13.86-1.85,3.17-5.13,5-7.47,7.74-6.53,7.64-7.84,21.01-4.31,30.21,2.5,6.51,7.72,11.57,10.16,18.08.87,2.31,1.32,4.8,2.44,7.02,2.97-1.93,4.24-4.37,3.6-7.94-.75-4.21-2.48-5.91-1.4-10.65,1.02-4.48,5.21-10.28,9.98-11.04-1.31,3.68-5.22,5.59-6.75,9.16-2.53,5.91,1.33,10.4,2.83,15.88-2.24,3.7-6.1,6.78-7.48,10.97-1.22,3.69-.72,7.94-1.01,11.79.27.07-.61,4.22-.45,4.1l-5.74,42.39,3.09,20.54c.33.4,1.13-1.95,1.2-2.13,4.99-12.47,6.47-22.75,17.02-32.32,7.31-6.63,22.71-12.91,27.2-21.21,3.65-6.73-1.32-12.17-.24-18.86.76-4.68,4.16-8.88,7.48-12.07.07,1.09-.54,2.48-.98,3.52-2.04,4.79-6.37,10.38-2.73,15.56l14.56-9.94,10.26-15.35c2.68,6.89-6.15,10.65-6.28,17.07l11.12-4.01.51.68c-4.24,6.9-13.26,4.61-19.5,8.11-8.14,4.57-7.45,13.46-12.34,20.25-2.15,2.98-5.27,5.66-8.66,7.09-.32.33.72.45.85.46,3.22.31,8.58-.21,11.68-1.2,4.66-1.48,8.12-5.12,12.55-7,3.83-1.63,7.05-1.42,9.49-5.41,1.99-3.25,2.08-6.4,2.95-9.93.06-.24,0-.5.26-.66,3.04,5.92.17,14.23-6.02,16.78-1.31.54-2.76.72-4.07,1.21-2.53.96-4.14,3.82-6.3,5.5-6.92,5.38-14.09,3.75-22.05,5.11-9.55,1.63-16.31,8.77-21.85,16.17.15.22.3.21.53.24,3.51.38,8.32-.85,11.36-2.62s5.15-4.94,8.98-5.3c2.9-.27,5.49,1.05,8.33.73,3.22-.37,6.73-2.44,9.2-4.46.33-.06.25.14.22.37-.56,3.72-5.82,7.08-9.37,7.23-1.92.08-3.56-.94-5.28-.95-4.01-.01-8.68,3.82-12.34,5.36-5.59,2.36-13.12,2.53-16.11,8.71-3.84,7.94-4.67,22.84-3.08,31.43l.89,3.23,1,7.31c-3.04,5.86-3.43,7.15-3.79,14.18-.26,5.15.57,10.81,1.94,15.75,4.2-4.03,9.38-7.15,12.46-12.21l8.63-12.31M185.63,117.63h0"/>
</svg>